<svg id="Capa_1" enable-background="new 0 0 512 512" height="512" viewBox="0 0 512 512" width="512" xmlns="http://www.w3.org/2000/svg"><g><path d="m348.782 118.537h.014c4.145 0 7.509-3.356 7.517-7.503l.059-31.132c.008-4.151-3.351-7.523-7.503-7.53-.005 0-.009 0-.014 0-4.145 0-7.509 3.356-7.517 7.503l-.059 31.132c-.008 4.15 3.351 7.522 7.503 7.53z"/><path d="m407.292 134.191c3.8 1.977 7.225 1.066 10.274-2.732l15.617-26.931c2.083-3.592.859-8.191-2.732-10.274-3.591-2.082-8.19-.858-10.274 2.732l-15.617 26.931c-2.083 3.592-.859 8.191 2.732 10.274z"/><path d="m460.399 179.774 26.99-15.515c3.6-2.069 4.84-6.663 2.771-10.262-2.068-3.6-6.664-4.842-10.262-2.771l-26.99 15.515c-3.6 2.069-4.84 6.663-2.771 10.262 1.39 2.42 5.782 5.415 10.262 2.771z"/><path d="m504.497 228.06-31.131-.059c-.005 0-.009 0-.014 0-4.145 0-7.509 3.356-7.517 7.503-.008 4.151 3.351 7.523 7.503 7.53l31.131.059h.014c4.145 0 7.509-3.356 7.517-7.503.008-4.151-3.351-7.522-7.503-7.53z"/><path d="m280.019 131.463c3.039 3.81 6.46 4.734 10.262 2.771 3.6-2.069 4.84-6.663 2.771-10.262l-15.515-26.99c-2.068-3.601-6.664-4.842-10.262-2.771-3.6 2.069-4.84 6.663-2.771 10.262z"/><path d="m473.013 370.861c-4.024-1.03-8.117 1.39-9.15 5.411-7.303 28.443-32.936 48.31-62.339 48.322-.009 0-.018-.001-.028-.001-35.5 0-64.381-28.881-64.381-64.381 0-4.152-3.365-7.517-7.517-7.517s-7.517 3.365-7.517 7.517c0 26.473 13.033 49.945 33.006 64.383h-150.66c-4.151 0-7.517 3.365-7.517 7.517s3.365 7.517 7.517 7.517h197.07c36.279 0 67.912-24.516 76.927-59.617 1.033-4.022-1.391-8.119-5.411-9.151z"/><path d="m171.674 424.595h-75.749c-39.674 0-73.721-28.261-80.957-67.2-.758-4.081-4.683-6.775-8.763-6.017-4.082.759-6.775 4.682-6.017 8.764 8.559 46.058 48.822 79.487 95.737 79.487h75.749c4.151 0 7.517-3.365 7.517-7.517s-3.365-7.517-7.517-7.517z"/><path d="m435.013 288.179c8.879-14.808 14.735-35.839 14.822-52.636.302-58.54-45.275-100.915-100.924-100.915-36.388 0-70.067 19.884-87.849 51.248-64.133-30.549-143.574-3.515-175.961 59.568-42.611 4.7-77.232 36.715-84.978 79.223-.744 4.084 1.963 7.998 6.048 8.743 4.083.734 7.998-1.964 8.742-6.048 6.757-37.087 37.714-64.721 75.322-67.281 49.397.128 88.053 36.165 88.053 82.155 0 4.152 3.365 7.517 7.517 7.517 4.151 0 7.517-3.365 7.517-7.517 0-50.836-41.802-91.208-91.155-96.536 21.187-35.389 59.913-57.715 101.609-57.715 41.729 0 80.483 22.362 101.658 57.798-20.226 2.646-39.176 12.274-53.23 27.312-2.834 3.033-2.673 7.79.36 10.624 3.59 2.815 7.132 2.695 10.624-.359 32.606-34.892 86.663-27.346 114.33 9.465 1.419 1.889 3.645 3.001 6.009 3.001 36.197-2.032 72.593 10.997 80.981 51.099 2.16 4.642 5.126 6.581 8.896 5.819 4.064-.85 5.806-4.744 5.819-8.896.061-20.699-22.97-51.1-44.21-55.669zm-47.825-7.384c-16.168-19.863-39.389-32.535-64.736-35.347-10.908-21.249-27.933-39.7-48.203-52.345 15.161-26.592 43.762-43.44 74.662-43.44 47.361 0 85.891 38.526 85.891 85.881 0 17.12-4.96 33.44-14.363 47.522-10.044-2.448-22.599-2.672-33.251-2.271z"/></g></svg>