<?xml version="1.0" encoding="iso-8859-1"?>
<!-- Generator: Adobe Illustrator 19.0.0, SVG Export Plug-In . SVG Version: 6.00 Build 0)  -->
<svg version="1.1" id="Capa_1" xmlns="http://www.w3.org/2000/svg" xmlns:xlink="http://www.w3.org/1999/xlink" x="0px" y="0px"
	 viewBox="0 0 512.002 512.002" style="enable-background:new 0 0 512.002 512.002;" xml:space="preserve">
<g>
	<g>
		<path d="M470.492,186.974c3.641-9.54,5.546-19.747,5.546-29.978c0-46.318-37.682-84-84-84c-15.581,0-30.473,4.203-43.575,12.2
			c-1.307-1.309-2.633-2.604-3.99-3.873c-29.808-27.881-68.714-43.236-109.551-43.236c-88.454,0-160.416,71.962-160.416,160.416
			c0,4.469,0.188,8.957,0.563,13.432c-0.523-0.011-1.046-0.017-1.569-0.017c-40.528,0-73.5,32.972-73.5,73.5
			c0,40.528,32.972,73.5,73.5,73.5h148.262c5.523,0,10-4.477,10-10s-4.477-10-10-10H73.5c-29.5,0-53.5-24-53.5-53.5
			s24-53.5,53.5-53.5c3.658,0,7.326,0.378,10.905,1.118C109.112,238.146,127,260.099,127,285.417c0,5.523,4.477,10,10,10
			s10-4.477,10-10c0-32.319-21.233-60.64-51.485-70.126c-0.667-5.578-1.008-11.201-1.008-16.789
			c0-77.426,62.99-140.416,140.416-140.416c73.337,0,134.855,57.236,140.05,130.304c0.229,3.228,2.006,6.145,4.769,7.83
			c2.763,1.684,6.17,1.927,9.144,0.653c9.221-3.951,19.017-5.955,29.116-5.955c40.804,0,74,33.196,74,74c0,40.804-33.196,74-74,74
			H313c-5.523,0-10,4.477-10,10s4.477,10,10,10h105.002c51.832,0,94-42.168,94-94C512.002,232.51,495.517,203.88,470.492,186.974z
			 M452.638,177.531c-10.724-4.265-22.41-6.613-34.636-6.613c-8.361-0.001-16.563,1.082-24.509,3.229
			c-4.101-26.924-14.968-52.189-31.558-73.642c9.205-4.937,19.444-7.51,30.104-7.51c35.29,0,64,28.71,64,64
			C456.039,164.086,454.88,170.956,452.638,177.531z"/>
	</g>
</g>
<g>
	<g>
		<path d="M275.41,341.85c-1.87-1.87-4.45-2.93-7.08-2.93s-5.21,1.06-7.07,2.93c-1.86,1.86-2.93,4.44-2.93,7.07s1.07,5.2,2.93,7.07
			c1.86,1.86,4.44,2.93,7.07,2.93c2.64,0,5.21-1.07,7.08-2.93c1.86-1.86,2.92-4.44,2.92-7.07
			C278.33,346.28,277.27,343.711,275.41,341.85z"/>
	</g>
</g>
<g>
	<g>
		<path d="M508.551,40.481c-3.905-3.905-10.237-3.905-14.143,0l-30.755,30.755c-3.905,3.905-3.905,10.237,0,14.143
			c1.953,1.953,4.513,2.929,7.072,2.929c2.559,0,5.119-0.976,7.071-2.929l30.755-30.755
			C512.456,50.719,512.456,44.387,508.551,40.481z"/>
	</g>
</g>
<g>
	<g>
		<path d="M392.039,15.917c-5.523,0-10,4.477-10,10v21.636c0,5.523,4.477,10,10,10s10-4.477,10-10V25.917
			C402.039,20.393,397.562,15.917,392.039,15.917z"/>
	</g>
</g>
<g>
	<g>
		<path d="M502.002,146.995h-4.856c-5.523,0-10,4.477-10,10s4.477,10,10,10h4.856c5.523,0,10-4.477,10-10
			S507.525,146.995,502.002,146.995z"/>
	</g>
</g>
<g>
	<g>
		<path d="M83.865,370.966c-3.905-3.905-10.237-3.905-14.142,0l-30.587,30.586c-3.905,3.905-3.906,10.237,0,14.142
			c1.953,1.953,4.512,2.929,7.071,2.929c2.559,0,5.119-0.977,7.071-2.929l30.587-30.586C87.77,381.201,87.77,374.87,83.865,370.966z
			"/>
	</g>
</g>
<g>
	<g>
		<path d="M213.531,370.966c-3.905-3.905-10.237-3.905-14.142,0l-30.394,30.393c-3.905,3.905-3.906,10.237,0,14.142
			c1.953,1.953,4.512,2.929,7.071,2.929c2.559,0,5.119-0.977,7.071-2.929l30.394-30.393
			C217.436,381.201,217.437,374.87,213.531,370.966z"/>
	</g>
</g>
<g>
	<g>
		<path d="M343.198,370.966c-3.906-3.905-10.237-3.905-14.142,0l-30.062,30.061c-3.905,3.905-3.906,10.237,0,14.142
			c1.953,1.953,4.512,2.929,7.071,2.929s5.119-0.977,7.071-2.929l30.062-30.061C347.103,381.201,347.103,374.87,343.198,370.966z"/>
	</g>
</g>
<g>
	<g>
		<path d="M121.688,433.968c-3.904-3.905-10.236-3.905-14.141,0L62.5,479.013c-3.905,3.905-3.905,10.237,0,14.143
			c1.953,1.953,4.512,2.929,7.071,2.929c2.559,0,5.119-0.976,7.071-2.929l45.046-45.046
			C125.593,444.206,125.593,437.874,121.688,433.968z"/>
	</g>
</g>
<g>
	<g>
		<path d="M251.355,433.967c-3.904-3.905-10.236-3.905-14.142,0l-45.046,45.046c-3.905,3.905-3.905,10.237,0,14.143
			c1.953,1.953,4.512,2.929,7.071,2.929c2.559,0,5.119-0.976,7.071-2.929l45.046-45.046
			C255.26,444.206,255.26,437.873,251.355,433.967z"/>
	</g>
</g>
<g>
	<g>
		<path d="M381.023,433.967c-3.905-3.905-10.237-3.904-14.142,0l-45.047,45.046c-3.905,3.905-3.905,10.237,0,14.142
			c1.953,1.953,4.512,2.929,7.071,2.929s5.119-0.977,7.071-2.929l45.047-45.046C384.928,444.204,384.928,437.872,381.023,433.967z"
			/>
	</g>
</g>
<g>
	<g>
		<path d="M472.865,370.964c-3.906-3.905-10.237-3.904-14.142,0L429,400.688c-3.905,3.905-3.906,10.237,0,14.142
			c1.953,1.953,4.512,2.929,7.071,2.929c2.559,0,5.119-0.977,7.071-2.929l29.723-29.723
			C476.77,381.201,476.771,374.87,472.865,370.964z"/>
	</g>
</g>
<g>
	<g>
		<path d="M235.219,83.511h-0.296c-5.523,0-10,4.477-10,10c0,5.523,4.477,10,10,10h0.171c0.021,0,0.042,0,0.064,0
			c5.493,0.001,9.964-4.436,9.999-9.937C245.191,88.052,240.742,83.547,235.219,83.511z"/>
	</g>
</g>
<g>
	<g>
		<path d="M346.101,186.971c-2.952-41.529-28.548-77.651-66.799-94.271c-5.063-2.201-10.955,0.122-13.157,5.187
			c-2.201,5.065,0.122,10.956,5.187,13.157c31.392,13.639,52.397,43.276,54.82,77.345c0.375,5.268,4.764,9.292,9.964,9.292
			c0.238,0,0.479-0.008,0.719-0.026C342.344,197.263,346.493,192.479,346.101,186.971z"/>
	</g>
</g>
<g>
</g>
<g>
</g>
<g>
</g>
<g>
</g>
<g>
</g>
<g>
</g>
<g>
</g>
<g>
</g>
<g>
</g>
<g>
</g>
<g>
</g>
<g>
</g>
<g>
</g>
<g>
</g>
<g>
</g>
</svg>
