<svg width="36" height="30" viewBox="0 0 36 30" fill="none" xmlns="http://www.w3.org/2000/svg">
<path fill-rule="evenodd" clip-rule="evenodd" d="M15.496 21.8045C10.2515 21.8045 6 17.595 6 12.4023C6 7.20954 10.2515 3 15.496 3C20.7406 3 24.9921 7.20954 24.9921 12.4023C24.9921 14.2843 24.4336 16.0371 23.4718 17.5072C23.5657 17.5708 23.6548 17.6441 23.738 17.7272L29.9263 23.9155C30.6331 24.6223 30.6331 25.7683 29.9263 26.4751C29.2195 27.1819 28.0735 27.1819 27.3667 26.4751L21.1784 20.2868C21.1099 20.2184 21.0482 20.1459 20.993 20.07C19.4416 21.1623 17.5446 21.8045 15.496 21.8045ZM15.496 19.8251C19.6365 19.8251 22.9929 16.5018 22.9929 12.4023C22.9929 8.30274 19.6365 4.97942 15.496 4.97942C11.3556 4.97942 7.99917 8.30274 7.99917 12.4023C7.99917 16.5018 11.3556 19.8251 15.496 19.8251Z" fill="white" style="mix-blend-mode:color-burn" stroke-width="1%"/>
<path fill-rule="evenodd" clip-rule="evenodd" d="M15.496 21.8045C10.2515 21.8045 6 17.595 6 12.4023C6 7.20954 10.2515 3 15.496 3C20.7406 3 24.9921 7.20954 24.9921 12.4023C24.9921 14.2843 24.4336 16.0371 23.4718 17.5072C23.5657 17.5708 23.6548 17.6441 23.738 17.7272L29.9263 23.9155C30.6331 24.6223 30.6331 25.7683 29.9263 26.4751C29.2195 27.1819 28.0735 27.1819 27.3667 26.4751L21.1784 20.2868C21.1099 20.2184 21.0482 20.1459 20.993 20.07C19.4416 21.1623 17.5446 21.8045 15.496 21.8045ZM15.496 19.8251C19.6365 19.8251 22.9929 16.5018 22.9929 12.4023C22.9929 8.30274 19.6365 4.97942 15.496 4.97942C11.3556 4.97942 7.99917 8.30274 7.99917 12.4023C7.99917 16.5018 11.3556 19.8251 15.496 19.8251Z" fill="white" fill-opacity="0.83" stroke-width="1%"/>
</svg>
