<svg width="414" height="896" viewBox="0 0 414 896" fill="none" xmlns="http://www.w3.org/2000/svg">
<g clip-path="url(#clip0)">
<rect width="414" height="896" fill="url(#paint0_linear)" style="mix-blend-mode:darken"/>
<g filter="url(#filter0_d)">
<path d="M201.503 301.83L187.573 288.972C185.931 287.18 183.008 286.943 181.045 288.442C179.081 289.942 178.821 292.611 180.464 294.403C180.628 294.582 180.808 294.749 181.003 294.901L194.933 307.759C196.877 309.28 199.802 309.074 201.468 307.299C202.941 305.729 202.956 303.416 201.503 301.83Z" fill="black"/>
<path d="M319.607 289.638C317.964 287.845 315.041 287.608 313.078 289.108C312.882 289.258 312.699 289.422 312.532 289.6L298.45 302.319C296.487 303.818 296.227 306.487 297.869 308.28C299.512 310.072 302.435 310.309 304.398 308.81C304.594 308.66 304.777 308.495 304.944 308.317L319.026 295.599C320.989 294.099 321.249 291.431 319.607 289.638Z" fill="black"/>
<path d="M235.68 286.989C235.651 286.866 235.617 286.744 235.576 286.624L230.483 269.139C229.953 266.866 227.505 265.415 225.015 265.898C222.525 266.381 220.936 268.617 221.465 270.89C221.494 271.013 221.528 271.135 221.569 271.255L226.662 288.74C227.192 291.013 229.64 292.464 232.13 291.981C234.62 291.498 236.209 289.262 235.68 286.989Z" fill="black"/>
<path d="M299.01 377.024C298.144 376.234 297.245 375.459 296.311 374.699L297.075 373.444C298.023 371.853 298.873 370.215 299.621 368.538C310.469 343.801 297.3 315.719 270.208 305.815C270.157 305.796 270.107 305.778 270.056 305.76C245.563 296.846 217.621 305.774 204.559 326.686C172.631 318.544 139.521 335.576 130.603 364.727C129.119 369.578 128.375 374.592 128.392 379.628C128.392 380.326 128.392 381.054 128.392 381.814C106.226 383.249 89.5306 400.819 91.1025 421.057C92.5878 440.185 109.937 455.052 130.938 455.194H131.065H263.486C291.178 455.238 313.666 434.777 313.715 409.493C313.737 397.315 308.446 385.631 299.01 377.024ZM234.43 313.619C244.757 309.869 256.265 309.869 266.593 313.619C288.981 321.774 299.908 344.943 291.014 365.399C290.37 366.807 289.639 368.181 288.824 369.514V369.886C276.04 363.1 260.629 361.808 246.704 366.352C244.134 356.99 238.898 348.415 231.527 341.497C236.676 332.767 248.149 328.916 258.265 332.522C260.683 333.248 263.288 332.046 264.084 329.839C264.813 327.813 263.768 325.61 261.652 324.709C247.917 319.684 232.212 324.366 224.371 335.823C220.895 333.438 217.148 331.403 213.192 329.755C218.165 322.414 225.619 316.75 234.43 313.619ZM273.16 445.709C270.008 446.396 266.777 446.74 263.537 446.732H131.116C114 446.718 100.138 434.037 100.153 418.409C100.161 410.92 103.419 403.739 109.216 398.439L109.165 398.462C114.969 393.154 122.85 390.175 131.065 390.185H132.186H133.179C135.719 390.343 137.918 388.591 138.091 386.272C138.118 385.909 138.093 385.543 138.017 385.186C137.916 384.38 137.831 383.504 137.763 382.559C137.763 381.675 137.763 380.699 137.763 379.606C138.14 354.003 161.178 333.527 189.22 333.871C213.86 334.174 234.705 350.585 238.657 372.793C239.022 375.093 241.36 376.688 243.879 376.355C244.366 376.291 244.838 376.156 245.278 375.955C248.098 374.668 251.071 373.685 254.14 373.026C276.122 368.23 298.2 380.614 303.453 400.685C308.705 420.755 295.142 440.913 273.16 445.709Z" fill="black"/>
<path d="M343.794 329.515C343.091 327.434 340.764 326.186 338.43 326.639L319.28 331.289C316.821 331.871 315.341 334.158 315.97 336.405C316.604 338.655 319.117 340.01 321.583 339.431C321.588 339.43 321.593 339.428 321.597 339.427L340.748 334.777C343.181 334.092 344.544 331.736 343.794 329.515Z" fill="black"/>
<path d="M340.544 370.653L321.445 365.887C318.991 365.245 316.432 366.541 315.728 368.782C315.025 371.023 316.444 373.359 318.899 374.002L337.998 378.768C340.452 379.41 343.011 378.114 343.715 375.873C344.418 373.632 342.999 371.296 340.544 370.653Z" fill="black"/>
<path d="M275.467 266.314C273.013 265.672 270.454 266.968 269.75 269.209L264.53 286.647C263.802 288.874 265.188 291.219 267.627 291.884C267.681 291.899 267.735 291.913 267.789 291.925C270.232 292.582 272.794 291.306 273.513 289.076C273.524 289.042 273.534 289.007 273.545 288.972L278.638 271.534C279.341 269.293 277.922 266.957 275.467 266.314Z" fill="black"/>
</g>
<g filter="url(#filter1_d)">
<rect x="91" y="-58" width="360" height="994" fill="#222222"/>
</g>
</g>
<defs>
<filter id="filter0_d" x="87" y="245" width="261" height="239" filterUnits="userSpaceOnUse" color-interpolation-filters="sRGB">
<feFlood flood-opacity="0" result="BackgroundImageFix"/>
<feColorMatrix in="SourceAlpha" type="matrix" values="0 0 0 0 0 0 0 0 0 0 0 0 0 0 0 0 0 0 127 0" result="hardAlpha"/>
<feOffset dy="4"/>
<feGaussianBlur stdDeviation="2"/>
<feColorMatrix type="matrix" values="0 0 0 0 0 0 0 0 0 0 0 0 0 0 0 0 0 0 0.35 0"/>
<feBlend mode="normal" in2="BackgroundImageFix" result="effect1_dropShadow"/>
<feBlend mode="normal" in="SourceGraphic" in2="effect1_dropShadow" result="shape"/>
</filter>
<filter id="filter1_d" x="87" y="-68" width="380" height="1014" filterUnits="userSpaceOnUse" color-interpolation-filters="sRGB">
<feFlood flood-opacity="0" result="BackgroundImageFix"/>
<feColorMatrix in="SourceAlpha" type="matrix" values="0 0 0 0 0 0 0 0 0 0 0 0 0 0 0 0 0 0 127 0" result="hardAlpha"/>
<feMorphology radius="6" operator="dilate" in="SourceAlpha" result="effect1_dropShadow"/>
<feOffset dx="6"/>
<feGaussianBlur stdDeviation="2"/>
<feComposite in2="hardAlpha" operator="out"/>
<feColorMatrix type="matrix" values="0 0 0 0 0 0 0 0 0 0 0 0 0 0 0 0 0 0 0.25 0"/>
<feBlend mode="normal" in2="BackgroundImageFix" result="effect1_dropShadow"/>
<feBlend mode="normal" in="SourceGraphic" in2="effect1_dropShadow" result="shape"/>
</filter>
<linearGradient id="paint0_linear" x1="45" y1="33.5" x2="140" y2="887.5" gradientUnits="userSpaceOnUse">
<stop stop-color="#3C20AB" stop-opacity="0.98"/>
<stop offset="0.957225" stop-color="#9873D5"/>
</linearGradient>
<clipPath id="clip0">
<rect width="414" height="896" fill="white"/>
</clipPath>
</defs>
</svg>
